# xmcd
#
# Track frame offsets:
#	150
#	20302
#	36544
#	54087
#	71144
#	91596
#	108662
#	125759
#	143919
#	158021
#	174660
#	195166
#	211534
#
# Disc length: 3111 seconds
#
# Revision: 1
# Processed by: cddbd v1.5.2PL0 Copyright (c) Steve Scherf et al.
# Submitted via: audiograbber 1.83.01
#
DISCID=a90c250d
DTITLE=Johnny Max - A Lesson I've Learned
DYEAR=1900
DGENRE=Blues
TTITLE0=Down In History
TTITLE1=Banks of the Credit
TTITLE2=We're Gonna Do It
TTITLE3=(You're) A Lesson I've Learned
TTITLE4=Write Your Name
TTITLE5=It That Ain't True
TTITLE6=It's Not My Fault
TTITLE7=Greezin'
TTITLE8=Jack and Jill
TTITLE9=Have Mercy
TTITLE10=Goin' Down, Standing Up
TTITLE11=Big Ol' Girls Need Some Lovin' Too!
TTITLE12=Why I Sing the Blues
EXTD=
EXTT0=
EXTT1=
EXTT2=
EXTT3=
EXTT4=
EXTT5=
EXTT6=
EXTT7=
EXTT8=
EXTT9=
EXTT10=
EXTT11=
EXTT12=
PLAYORDER=
